# xmcd
#
# Track frame offsets:
#	150
#	1632
#	17046
#	41136
#	61246
#	81265
#	101485
#	116965
#	118166
#	139106
#	158427
#	179734
#	198832
#	218363
#	232235
#	247574
#	251123
#	273812
#
# Disc length: 4160 seconds
#
# Revision: 1
# Processed by: cddbd v1.5.2PL0 Copyright (c) Steve Scherf et al.
# Submitted via: audiograbber 1.83.01
#
DISCID=ed103e12
DTITLE=Cody Canada - This Is Indian Land
DYEAR=2011
DGENRE=Americana
TTITLE0=Call From Crouch
TTITLE1=Face On Mars
TTITLE2=Ballad of Rosalie
TTITLE3=True Love Never Dies
TTITLE4=Home Sweet Oklahoma
TTITLE5=Make Yourself Home
TTITLE6=Long Way To Nowhere
TTITLE7=Call From Coop
TTITLE8=Starin' Down The Sun
TTITLE9=Any Other Way
TTITLE10=Kickin' Back In Amsterdam
TTITLE11=Water Your Own Yard
TTITLE12=Years In The Making
TTITLE13=If You're Ever In Oklahoma
TTITLE14=A Little Rain Will Do
TTITLE15=Call From Skinner
TTITLE16=Skyline Radio
TTITLE17=Hold On Christian
EXTD=
EXTT0=
EXTT1=
EXTT2=
EXTT3=
EXTT4=
EXTT5=
EXTT6=
EXTT7=
EXTT8=
EXTT9=
EXTT10=
EXTT11=
EXTT12=
EXTT13=
EXTT14=
EXTT15=
EXTT16=
EXTT17=
PLAYORDER=
